<?xml version="1.0" standalone="no"?>
<!DOCTYPE svg PUBLIC "-//W3C//DTD SVG 20010904//EN"
 "http://www.w3.org/TR/2001/REC-SVG-20010904/DTD/svg10.dtd">
<svg version="1.0" xmlns="http://www.w3.org/2000/svg"
 width="1024.000000pt" height="1024.000000pt" viewBox="0 0 1024.000000 1024.000000"
 preserveAspectRatio="xMidYMid meet">

<g transform="translate(0.000000,1024.000000) scale(0.100000,-0.100000)"
fill="#000000" stroke="none">
<path d="M0 5120 l0 -5120 5120 0 5120 0 0 5120 0 5120 -5120 0 -5120 0 0
-5120z m4937 3469 c154 -73 223 -249 154 -391 -30 -64 -101 -140 -148 -162
l-38 -17 3 -397 4 -397 27 -45 c58 -95 59 -134 4 -184 -35 -32 -32 70 -35
-1354 l-3 -1072 32 -6 c49 -9 108 -67 145 -142 85 -171 8 -351 -179 -422 -53
-20 -63 -21 -117 -10 -105 21 -172 65 -227 151 -58 90 -52 240 12 329 36 50
104 100 136 100 l23 0 0 449 c0 247 -3 457 -7 466 -5 14 -8 11 -17 -13 -15
-44 -253 -314 -466 -532 -214 -218 -234 -241 -224 -248 42 -30 69 -145 53
-224 -24 -109 -64 -159 -169 -206 -150 -69 -307 -16 -377 126 -24 49 -28 69
-28 142 0 68 5 93 22 125 31 58 90 114 152 143 46 21 63 24 127 20 l74 -5 72
81 c40 45 152 164 248 266 250 264 332 357 374 423 26 41 49 63 73 73 53 23
67 16 74 -36 9 -68 14 622 10 1560 l-3 835 -43 22 c-50 26 -105 87 -137 152
-18 36 -23 63 -23 126 0 71 4 89 33 147 44 91 118 144 217 158 68 9 99 4 172
-31z m-1057 -155 c39 -12 66 -29 105 -68 91 -91 118 -214 73 -332 -19 -48 -20
-58 -8 -62 21 -5 400 -390 525 -532 60 -69 105 -129 105 -141 0 -11 -11 -30
-25 -43 -14 -13 -25 -28 -25 -33 0 -5 -9 -18 -19 -28 -19 -17 -22 -16 -63 18
-24 20 -80 75 -123 124 -44 48 -105 112 -135 143 -118 119 -317 327 -349 364
l-33 39 -50 -18 c-104 -37 -238 4 -298 90 -51 74 -70 125 -70 189 0 95 26 163
86 222 79 78 188 102 304 68z m2178 -70 c62 -31 106 -79 141 -154 35 -74 37
-194 4 -256 -27 -50 -113 -130 -168 -155 -54 -25 -156 -25 -211 0 l-40 18
-373 -370 c-253 -251 -375 -366 -381 -358 -4 7 -10 55 -14 106 -9 117 -2 133
102 229 42 39 177 173 301 298 223 224 226 228 214 255 -18 42 -16 171 4 229
19 57 89 130 155 162 67 32 197 31 266 -4z m-3114 -32 c55 -25 129 -92 162
-148 34 -58 43 -161 19 -224 -9 -25 -19 -52 -21 -60 -3 -9 11 -27 37 -47 55
-43 255 -239 393 -387 60 -64 118 -122 130 -128 12 -7 61 -10 118 -9 121 3
148 -8 241 -99 60 -59 67 -70 67 -104 l0 -39 -71 7 c-39 3 -79 11 -89 16 -10
5 -87 17 -171 26 -124 14 -273 17 -757 19 l-603 2 -20 -28 c-11 -15 -45 -40
-77 -56 -110 -54 -260 -29 -334 55 -128 146 -102 362 54 452 29 16 76 35 104
41 143 32 334 -110 334 -248 l0 -42 422 0 c231 0 441 -3 465 -7 23 -3 43 -3
43 1 0 19 -91 122 -230 260 -83 83 -160 164 -171 182 l-20 32 -46 -25 c-153
-81 -355 56 -371 252 -2 34 1 84 7 110 22 89 113 186 202 213 47 14 129 7 183
-17z m4721 -1113 c61 -50 135 -114 165 -143 94 -89 128 -110 184 -116 l51 -5
2 -187 2 -188 -30 0 c-77 0 -117 -20 -207 -105 -48 -45 -123 -108 -167 -139
l-79 -57 -275 3 c-331 4 -295 -10 -497 187 l-137 135 5 204 c6 237 4 230 114
303 39 26 82 65 97 87 24 37 89 90 127 105 8 3 132 6 275 6 l261 1 109 -91z
m903 -296 c19 -16 21 -32 24 -170 3 -118 1 -153 -9 -153 -26 0 -59 22 -82 55
l-23 34 -137 3 -136 3 -3 59 c-2 41 1 62 10 67 7 5 66 9 131 9 l117 0 27 55
c29 59 47 67 81 38z m-2050 -9 c21 -6 22 -11 22 -105 0 -96 -1 -99 -22 -100
-13 0 -244 0 -513 1 l-490 1 -73 -51 c-41 -29 -138 -114 -216 -191 l-143 -139
-6 126 c-5 99 -4 132 8 153 22 44 195 215 256 254 31 20 71 40 90 45 37 11
1048 16 1087 6z m-4209 -133 c24 -13 66 -43 92 -68 l49 -46 88 7 c48 3 526 6
1062 7 l975 0 3 -73 c3 -73 -26 -239 -53 -304 -9 -23 -42 -51 -115 -99 -77
-50 -151 -115 -294 -255 -105 -103 -209 -196 -231 -208 -22 -11 -56 -39 -75
-63 -33 -42 -359 -388 -468 -497 -40 -40 -52 -58 -46 -70 16 -34 16 -122 0
-175 -20 -68 -89 -148 -159 -183 -72 -37 -138 -41 -211 -14 -198 75 -259 317
-120 479 58 68 103 86 211 86 81 0 95 -3 124 -24 l32 -24 51 59 c60 69 429
456 566 594 52 52 142 137 200 188 352 312 435 390 427 399 -3 2 -159 5 -347
5 -328 1 -343 0 -353 -18 -11 -21 -152 -162 -421 -418 -146 -139 -176 -173
-171 -190 19 -67 17 -87 -13 -149 -37 -75 -100 -143 -156 -168 -121 -55 -316
13 -376 131 -44 87 -41 221 8 299 39 64 121 127 190 147 71 21 143 9 216 -37
l50 -31 208 209 c114 115 208 213 208 218 0 14 -983 13 -992 0 -4 -5 -8 -20
-8 -33 0 -35 -37 -99 -86 -152 -146 -156 -383 -104 -469 102 -18 44 -20 154
-3 209 21 71 97 142 187 176 53 20 166 12 220 -16z m3880 -554 c48 -46 99 -92
114 -102 26 -16 28 -16 64 7 33 20 50 23 133 23 84 -1 101 -4 148 -28 120 -63
176 -153 176 -282 0 -99 -28 -159 -105 -229 -71 -64 -138 -83 -232 -67 -125
21 -196 72 -243 176 -29 65 -38 124 -25 170 8 29 7 44 -4 66 -18 33 -137 131
-180 147 -16 6 -108 13 -203 15 -173 4 -174 4 -203 -20 -16 -14 -29 -22 -29
-19 0 8 -87 -81 -198 -203 l-94 -101 -4 -235 -4 -235 153 -147 c203 -197 286
-280 326 -327 33 -39 33 -39 61 -23 47 28 143 23 216 -12 111 -52 164 -144
164 -282 0 -65 -4 -81 -28 -120 -133 -208 -427 -210 -532 -3 -33 64 -41 206
-16 263 l17 36 -223 225 c-123 124 -249 255 -279 293 l-56 67 -1 281 c-1 276
-1 280 21 302 12 12 44 49 70 82 89 110 279 306 331 340 l51 34 263 -4 263 -3
88 -85z m-4217 -2733 c17 -28 79 -190 260 -669 84 -222 85 -201 -9 -197 -43 2
-83 5 -89 7 -10 3 -20 30 -44 123 l-11 43 -102 -5 c-56 -2 -131 -5 -167 -5
l-65 -1 -24 -80 -24 -80 -98 0 -98 0 23 53 c27 60 119 310 152 412 31 94 95
259 135 346 35 76 52 90 109 86 26 -2 38 -9 52 -33z m2220 18 c79 -28 130 -72
168 -143 l35 -64 0 -240 c0 -272 0 -271 -89 -353 -78 -72 -118 -87 -226 -87
-84 0 -102 3 -158 29 -83 39 -156 117 -178 192 -12 43 -15 95 -12 267 3 203 4
214 28 262 60 120 284 191 432 137z m1182 -167 c18 -55 55 -175 82 -267 27
-92 52 -168 56 -168 8 0 61 163 73 220 6 34 80 264 111 348 l16 42 94 0 c52 0
94 -3 94 -6 0 -3 -8 -26 -19 -52 -22 -55 -89 -241 -171 -472 -32 -91 -74 -208
-93 -260 l-34 -95 -71 -3 -70 -3 -42 123 c-24 68 -91 267 -151 443 l-108 320
82 5 82 5 18 -40 c11 -22 33 -85 51 -140z m1051 154 c59 -28 116 -82 147 -141
22 -41 23 -52 23 -288 l0 -245 -36 -56 c-41 -63 -72 -88 -154 -125 -49 -23
-67 -26 -138 -22 -135 6 -243 71 -295 179 -21 43 -22 59 -22 287 0 237 1 244
24 290 24 45 64 84 116 112 86 46 247 50 335 9z m-3925 -290 c0 -345 3 -363
64 -400 59 -36 188 -19 228 28 10 12 14 97 18 347 l5 331 83 3 82 3 0 -343 c0
-388 -1 -390 -80 -467 -70 -68 -119 -86 -235 -86 -86 0 -106 4 -145 24 -75 40
-118 79 -144 134 -25 52 -25 54 -28 395 l-3 342 77 0 78 0 0 -311z m1190 242
c0 -105 6 -101 -126 -101 l-114 0 -2 -362 -3 -363 -77 -3 -78 -3 -2 193 c-2
106 -1 271 1 366 l3 172 -111 0 -111 0 0 85 0 85 310 0 310 0 0 -69z m1390
-20 l0 -89 -199 6 -200 5 -3 -102 -3 -101 185 0 185 0 -3 -80 -4 -80 -179 0
-179 0 0 -95 0 -96 215 3 c172 2 216 0 220 -10 3 -8 5 -47 5 -88 l0 -74 -305
0 -305 0 0 445 0 445 285 0 285 0 0 -89z m1805 -23 c3 -62 5 -225 3 -362 l-3
-249 206 7 206 7 7 -65 c3 -36 4 -77 0 -91 l-6 -25 -289 0 -289 0 0 445 0 445
79 0 79 0 7 -112z m613 -80 c33 -106 78 -249 99 -318 l39 -125 22 85 c13 47
38 135 56 195 19 61 41 136 51 167 9 32 30 87 46 123 l31 65 84 0 84 0 -6 -27
c-3 -16 -21 -68 -39 -118 -18 -49 -67 -189 -109 -310 -41 -121 -93 -267 -114
-325 l-40 -105 -67 -5 c-81 -6 -65 -32 -156 250 -34 107 -82 249 -107 315 -24
66 -59 166 -77 223 l-33 102 87 0 87 0 62 -192z m1182 107 l0 -84 -37 -7 c-20
-4 -117 -4 -215 -1 l-178 6 0 -97 0 -97 175 3 175 3 0 -85 0 -86 -175 0 -175
0 0 -96 0 -96 214 4 214 3 6 -62 c4 -34 4 -74 0 -88 l-6 -25 -294 0 -294 0 0
445 0 445 295 0 295 0 0 -85z"/>
<path d="M4748 8434 c-82 -44 -75 -194 11 -239 38 -19 64 -19 107 1 38 18 74
76 74 119 0 100 -107 166 -192 119z"/>
<path d="M3734 4650 c-27 -11 -72 -65 -80 -97 -9 -36 12 -99 43 -122 42 -34
97 -45 133 -26 34 17 66 63 76 107 7 34 -21 94 -57 119 -29 21 -87 31 -115 19z"/>
<path d="M4744 4400 c-57 -37 -76 -135 -37 -188 25 -34 79 -62 121 -62 73 0
142 116 112 189 -29 72 -130 103 -196 61z"/>
<path d="M3724 8261 c-31 -19 -64 -74 -64 -107 0 -32 40 -101 66 -112 31 -15
89 -15 115 -2 24 13 59 81 59 116 0 36 -37 100 -67 113 -35 16 -74 13 -109 -8z"/>
<path d="M5832 8186 c-32 -30 -37 -40 -36 -78 2 -83 69 -168 132 -168 88 0
145 111 104 203 -37 84 -132 104 -200 43z"/>
<path d="M2792 8173 c-48 -23 -72 -59 -72 -106 0 -73 60 -137 127 -137 76 1
129 113 91 194 -23 52 -93 76 -146 49z"/>
<path d="M2135 7445 c-47 -24 -65 -52 -65 -102 0 -117 109 -173 184 -94 55 57
42 150 -27 191 -39 24 -53 25 -92 5z"/>
<path d="M7270 7089 c-54 -10 -102 -60 -152 -158 -58 -114 -40 -233 48 -331
57 -62 104 -83 180 -78 81 5 134 40 177 117 25 43 31 68 34 130 4 67 0 90 -32
186 -19 60 -43 117 -52 127 -13 14 -31 18 -87 17 -39 -1 -91 -5 -116 -10z
m114 -153 c52 -22 76 -60 76 -120 0 -60 -20 -89 -78 -113 -72 -30 -139 11
-162 98 -20 72 6 117 79 140 38 11 48 10 85 -5z"/>
<path d="M2143 6639 c-129 -38 -99 -249 36 -249 34 0 97 57 107 97 11 41 -4
96 -33 124 -33 33 -66 41 -110 28z"/>
<path d="M2764 5936 c-40 -39 -44 -48 -44 -92 0 -107 99 -178 176 -128 34 23
74 94 74 134 0 67 -63 130 -131 130 -24 0 -42 -10 -75 -44z"/>
<path d="M2964 5121 c-67 -41 -83 -107 -41 -168 32 -48 80 -68 127 -54 104 31
120 164 27 221 -40 25 -73 25 -113 1z"/>
<path d="M6462 5963 c-50 -24 -72 -58 -72 -112 0 -84 57 -142 141 -143 44 0
87 31 115 84 58 112 -67 229 -184 171z"/>
<path d="M5893 4659 c-17 -5 -46 -26 -62 -46 -56 -68 -37 -158 39 -198 57 -29
115 -13 165 47 23 28 27 39 23 80 -9 86 -84 140 -165 117z"/>
<path d="M1891 3205 c-30 -67 -91 -232 -91 -245 0 -6 40 -10 110 -10 l109 0
-48 138 c-26 75 -50 144 -53 152 -3 9 -13 -4 -27 -35z"/>
<path d="M3997 3349 c-20 -6 -51 -24 -67 -39 l-30 -28 1 -129 c1 -70 4 -166 7
-212 7 -81 8 -85 43 -113 64 -52 183 -50 243 3 32 27 34 34 39 111 4 46 3 144
-1 218 l-7 134 -41 29 c-46 32 -124 43 -187 26z"/>
<path d="M6213 3351 c-18 -5 -49 -20 -68 -35 l-35 -27 0 -206 0 -205 38 -38
c29 -30 47 -39 88 -44 64 -9 125 6 165 42 l31 27 1 201 c1 222 -2 238 -64 269
-37 19 -112 27 -156 16z"/>
</g>
</svg>
